<svg width="51" height="51" viewBox="0 0 51 51" fill="none" xmlns="http://www.w3.org/2000/svg">
<path d="M12.75 3.1875V6.375H7.96875C5.3291 6.375 3.1875 8.5166 3.1875 11.1562V15.9375H47.8125V11.1562C47.8125 8.5166 45.6709 6.375 43.0312 6.375H38.25V3.1875C38.25 1.42441 36.8256 0 35.0625 0C33.2994 0 31.875 1.42441 31.875 3.1875V6.375H19.125V3.1875C19.125 1.42441 17.7006 0 15.9375 0C14.1744 0 12.75 1.42441 12.75 3.1875ZM47.8125 19.125H3.1875V46.2188C3.1875 48.8584 5.3291 51 7.96875 51H43.0312C45.6709 51 47.8125 48.8584 47.8125 46.2188V19.125ZM25.5 24.7031C26.8248 24.7031 27.8906 25.7689 27.8906 27.0938V32.6719H33.4688C34.7936 32.6719 35.8594 33.7377 35.8594 35.0625C35.8594 36.3873 34.7936 37.4531 33.4688 37.4531H27.8906V43.0312C27.8906 44.3561 26.8248 45.4219 25.5 45.4219C24.1752 45.4219 23.1094 44.3561 23.1094 43.0312V37.4531H17.5312C16.2064 37.4531 15.1406 36.3873 15.1406 35.0625C15.1406 33.7377 16.2064 32.6719 17.5312 32.6719H23.1094V27.0938C23.1094 25.7689 24.1752 24.7031 25.5 24.7031Z" fill="white"/>
</svg>
