<svg width="51" height="51" viewBox="0 0 51 51" fill="none" xmlns="http://www.w3.org/2000/svg">
<path d="M47.9358 16.5949C48.2545 17.4615 47.9856 18.4277 47.2983 19.0453L42.9852 22.9699C43.0948 23.7967 43.1545 24.6434 43.1545 25.5C43.1545 26.3566 43.0948 27.2033 42.9852 28.0301L47.2983 31.9547C47.9856 32.5723 48.2545 33.5385 47.9358 34.4051C47.4975 35.5904 46.9696 36.726 46.362 37.8217L45.8938 38.6285C45.2364 39.7242 44.4993 40.7602 43.6924 41.7363C43.1047 42.4535 42.1286 42.6926 41.252 42.4137L35.7038 40.6506C34.369 41.6766 32.8948 42.5332 31.3209 43.1807L30.0758 48.8684C29.8766 49.7748 29.1793 50.492 28.2629 50.6414C26.8883 50.8705 25.4739 50.99 24.0295 50.99C22.5852 50.99 21.1708 50.8705 19.7961 50.6414C18.8797 50.492 18.1825 49.7748 17.9833 48.8684L16.7381 43.1807C15.1643 42.5332 13.6901 41.6766 12.3553 40.6506L6.81704 42.4236C5.94048 42.7025 4.96431 42.4535 4.37661 41.7463C3.56978 40.7701 2.83267 39.7342 2.17525 38.6385L1.70708 37.8316C1.09946 36.7359 0.571534 35.6004 0.133253 34.415C-0.185497 33.5484 0.0834484 32.5822 0.770753 31.9646L5.08384 28.04C4.97427 27.2033 4.9145 26.3566 4.9145 25.5C4.9145 24.6434 4.97427 23.7967 5.08384 22.9699L0.770753 19.0453C0.0834484 18.4277 -0.185497 17.4615 0.133253 16.5949C0.571534 15.4096 1.09946 14.274 1.70708 13.1783L2.17525 12.3715C2.83267 11.2758 3.56978 10.2398 4.37661 9.26367C4.96431 8.54648 5.94048 8.30742 6.81704 8.58633L12.3653 10.3494C13.7001 9.32344 15.1743 8.4668 16.7481 7.81934L17.9932 2.13164C18.1924 1.2252 18.8897 0.508008 19.8061 0.358594C21.1807 0.119531 22.5952 0 24.0395 0C25.4838 0 26.8983 0.119531 28.2729 0.348633C29.1893 0.498047 29.8866 1.21523 30.0858 2.12168L31.3309 7.80938C32.9047 8.45684 34.379 9.31348 35.7137 10.3395L41.262 8.57637C42.1385 8.29746 43.1147 8.54648 43.7024 9.25371C44.5092 10.2299 45.2463 11.2658 45.9038 12.3615L46.3719 13.1684C46.9795 14.2641 47.5075 15.3996 47.9458 16.585L47.9358 16.5949ZM24.0395 33.4688C26.1529 33.4688 28.1798 32.6292 29.6743 31.1348C31.1687 29.6403 32.0083 27.6134 32.0083 25.5C32.0083 23.3866 31.1687 21.3597 29.6743 19.8652C28.1798 18.3708 26.1529 17.5312 24.0395 17.5312C21.9261 17.5312 19.8992 18.3708 18.4047 19.8652C16.9103 21.3597 16.0708 23.3866 16.0708 25.5C16.0708 27.6134 16.9103 29.6403 18.4047 31.1348C19.8992 32.6292 21.9261 33.4688 24.0395 33.4688Z" fill="white"/>
</svg>
