<svg width="104" height="92" viewBox="0 0 104 92" fill="none" xmlns="http://www.w3.org/2000/svg">
<g clip-path="url(#clip0_2_7)">
<path d="M103.973 45.9102C103.973 49.1445 101.264 51.6781 98.1945 51.6781H92.4162L92.5426 80.4641C92.5426 80.9492 92.5065 81.4344 92.4523 81.9195V84.8125C92.4523 88.7836 89.2201 92 85.2295 92H82.3403C82.1417 92 81.9431 92 81.7445 91.982C81.4917 92 81.2389 92 80.9861 92H75.1175H70.7838C66.7932 92 63.561 88.7836 63.561 84.8125V80.5V69C63.561 65.8195 60.9788 63.25 57.7827 63.25H46.2262C43.03 63.25 40.4479 65.8195 40.4479 69V80.5V84.8125C40.4479 88.7836 37.2157 92 33.225 92H28.8913H23.1311C22.8603 92 22.5894 91.982 22.3186 91.9641C22.1019 91.982 21.8852 92 21.6685 92H18.7794C14.7888 92 11.5565 88.7836 11.5565 84.8125V64.6875C11.5565 64.5258 11.5565 64.3461 11.5746 64.1844V51.6781H5.77827C2.52799 51.6781 0 49.1625 0 45.9102C0 44.293 0.541713 42.8555 1.80571 41.5977L48.1041 1.4375C49.3681 0.179688 50.8127 0 52.0767 0C53.3406 0 54.7852 0.359375 55.8686 1.25781L101.986 41.5977C103.431 42.8555 104.153 44.293 103.973 45.9102Z" fill="white"/>
</g>
<defs>
<clipPath id="clip0_2_7">
<rect width="104" height="92" fill="white"/>
</clipPath>
</defs>
</svg>
