<svg width="72" height="64" viewBox="0 0 72 64" fill="none" xmlns="http://www.w3.org/2000/svg">
<path d="M33.6133 6.52564C35.1266 5.82479 36.8734 5.82479 38.3867 6.52564L60.5883 16.7845C61.4516 17.1806 62 18.044 62 18.9987C62 19.9535 61.4516 20.8169 60.5883 21.213L38.3867 31.4718C36.8734 32.1727 35.1266 32.1727 33.6133 31.4718L11.4117 21.213C10.5484 20.8067 10 19.9434 10 18.9987C10 18.0541 10.5484 17.1806 11.4117 16.7845L33.6133 6.52564ZM55.1852 27.287L60.5883 29.7857C61.4516 30.1819 62 31.0452 62 32C62 32.9548 61.4516 33.8181 60.5883 34.2143L38.3867 44.4731C36.8734 45.1739 35.1266 45.1739 33.6133 44.4731L11.4117 34.2143C10.5484 33.808 10 32.9446 10 32C10 31.0554 10.5484 30.1819 11.4117 29.7857L16.8148 27.287L32.2523 34.4174C34.6289 35.5144 37.3711 35.5144 39.7477 34.4174L55.1852 27.287ZM39.7477 47.4187L55.1852 40.2883L60.5883 42.787C61.4516 43.1831 62 44.0465 62 45.0013C62 45.9561 61.4516 46.8194 60.5883 47.2155L38.3867 57.4744C36.8734 58.1752 35.1266 58.1752 33.6133 57.4744L11.4117 47.2155C10.5484 46.8093 10 45.9459 10 45.0013C10 44.0566 10.5484 43.1831 11.4117 42.787L16.8148 40.2883L32.2523 47.4187C34.6289 48.5157 37.3711 48.5157 39.7477 47.4187Z" fill="white"/>
</svg>
