<svg width="55" height="55" viewBox="0 0 55 55" fill="none" xmlns="http://www.w3.org/2000/svg">
<path d="M18.9062 3.4375C23.6543 3.4375 27.5 7.2832 27.5 12.0312V13.75C27.5 14.6953 26.7266 15.4688 25.7812 15.4688C21.0332 15.4688 17.1875 11.623 17.1875 6.875V5.15625C17.1875 4.21094 17.9609 3.4375 18.9062 3.4375ZM6.01562 6.875H11.1719C12.6006 6.875 13.75 8.02441 13.75 9.45312C13.75 10.8818 12.6006 12.0312 11.1719 12.0312H6.01562C4.58691 12.0312 3.4375 10.8818 3.4375 9.45312C3.4375 8.02441 4.58691 6.875 6.01562 6.875ZM2.57812 14.6094H14.6094C16.0381 14.6094 17.1875 15.7588 17.1875 17.1875C17.1875 18.6162 16.0381 19.7656 14.6094 19.7656H2.57812C1.14941 19.7656 0 18.6162 0 17.1875C0 15.7588 1.14941 14.6094 2.57812 14.6094ZM3.4375 24.9219C3.4375 23.4932 4.58691 22.3438 6.01562 22.3438H11.1719C12.6006 22.3438 13.75 23.4932 13.75 24.9219C13.75 26.3506 12.6006 27.5 11.1719 27.5H6.01562C4.58691 27.5 3.4375 26.3506 3.4375 24.9219ZM29.2188 5.15625C29.2188 4.21094 29.9922 3.4375 30.9375 3.4375C35.6855 3.4375 39.5312 7.2832 39.5312 12.0312V13.75C39.5312 14.6953 38.7578 15.4688 37.8125 15.4688C33.0645 15.4688 29.2188 11.623 29.2188 6.875V5.15625ZM42.9688 3.4375C47.7168 3.4375 51.5625 7.2832 51.5625 12.0312V13.75C51.5625 14.6953 50.7891 15.4688 49.8438 15.4688C45.0957 15.4688 41.25 11.623 41.25 6.875V5.15625C41.25 4.21094 42.0234 3.4375 42.9688 3.4375ZM51.5625 20.625V22.3438C51.5625 27.0918 47.7168 30.9375 42.9688 30.9375C42.0234 30.9375 41.25 30.1641 41.25 29.2188V27.5C41.25 22.752 45.0957 18.9062 49.8438 18.9062C50.7891 18.9062 51.5625 19.6797 51.5625 20.625ZM37.8125 18.9062C38.7578 18.9062 39.5312 19.6797 39.5312 20.625V22.3438C39.5312 27.0918 35.6855 30.9375 30.9375 30.9375C29.9922 30.9375 29.2188 30.1641 29.2188 29.2188V27.5C29.2188 22.752 33.0645 18.9062 37.8125 18.9062ZM27.5 20.625V22.3438C27.5 27.0918 23.6543 30.9375 18.9062 30.9375C17.9609 30.9375 17.1875 30.1641 17.1875 29.2188V27.5C17.1875 22.752 21.0332 18.9062 25.7812 18.9062C26.7266 18.9062 27.5 19.6797 27.5 20.625ZM0.375977 37.3398C0.171875 35.7607 1.39648 34.375 2.98633 34.375H52.0137C53.6035 34.375 54.8281 35.7607 54.6348 37.3398C53.958 42.7324 49.8652 46.9434 44.6875 47.9102V48.125C44.6875 50.0264 43.1514 51.5625 41.25 51.5625H13.75C11.8486 51.5625 10.3125 50.0264 10.3125 48.125V47.9102C5.13477 46.9434 1.04199 42.7324 0.375977 37.3398Z" fill="white"/>
</svg>
