<svg width="36" height="32" viewBox="0 0 36 32" fill="none" xmlns="http://www.w3.org/2000/svg">
<path d="M9.60625 9.05C10.0375 10.0688 10.8938 11 12 11H24C25.1063 11 25.9625 10.0688 26.3937 9.05C27.15 7.25625 28.9312 6 31 6C33.7625 6 36 8.2375 36 11C36 12.9 34.9375 14.5562 33.375 15.4C33.15 15.5187 33 15.7437 33 16C33 16.2563 33.15 16.4813 33.375 16.6C34.9375 17.4438 36 19.1 36 21C36 23.7625 33.7625 26 31 26C28.9312 26 27.15 24.7438 26.3937 22.95C25.9625 21.9313 25.1063 21 24 21H12C10.8938 21 10.0375 21.9313 9.60625 22.95C8.85 24.7438 7.06875 26 5 26C2.2375 26 0 23.7625 0 21C0 19.1 1.0625 17.4438 2.625 16.6C2.85 16.4813 3 16.2563 3 16C3 15.7437 2.85 15.5187 2.625 15.4C1.0625 14.5562 0 12.9 0 11C0 8.2375 2.2375 6 5 6C7.06875 6 8.85 7.25625 9.60625 9.05Z"/>
</svg>
