<svg width="25" height="25" viewBox="0 0 25 25" fill="none" xmlns="http://www.w3.org/2000/svg">
<g clip-path="url(#clip0_29_12)">
<path d="M4.6875 1.5625V6.25H10.9375V1.5625C10.9375 0.698242 10.2393 0 9.375 0H6.25C5.38574 0 4.6875 0.698242 4.6875 1.5625ZM4.6875 7.8125C2.09961 7.8125 0 9.91211 0 12.5V22.6562C0 23.9502 1.0498 25 2.34375 25H13.2812C14.5752 25 15.625 23.9502 15.625 22.6562V12.5C15.625 9.91211 13.5254 7.8125 10.9375 7.8125H4.6875ZM7.8125 12.5C8.8485 12.5 9.84207 12.9116 10.5746 13.6441C11.3072 14.3767 11.7188 15.3702 11.7188 16.4062C11.7188 17.4423 11.3072 18.4358 10.5746 19.1684C9.84207 19.9009 8.8485 20.3125 7.8125 20.3125C6.7765 20.3125 5.78293 19.9009 5.05036 19.1684C4.3178 18.4358 3.90625 17.4423 3.90625 16.4062C3.90625 15.3702 4.3178 14.3767 5.05036 13.6441C5.78293 12.9116 6.7765 12.5 7.8125 12.5ZM18.75 2.34375C18.75 2.27539 18.7012 2.19727 18.6426 2.16797L17.1875 1.5625L16.582 0.107422C16.5527 0.0488281 16.4746 0 16.4062 0C16.3379 0 16.2598 0.0488281 16.2305 0.107422L15.625 1.5625L14.1699 2.16797C14.1113 2.19727 14.0625 2.27539 14.0625 2.34375C14.0625 2.41211 14.1113 2.49023 14.1699 2.51953L15.625 3.125L16.2305 4.58008C16.2598 4.63867 16.3379 4.6875 16.4062 4.6875C16.4746 4.6875 16.5527 4.63867 16.582 4.58008L17.1875 3.125L18.6426 2.51953C18.7012 2.49023 18.75 2.41211 18.75 2.34375ZM22.4805 4.58008C22.5098 4.63867 22.5879 4.6875 22.6562 4.6875C22.7246 4.6875 22.8027 4.63867 22.832 4.58008L23.4375 3.125L24.8926 2.51953C24.9512 2.49023 25 2.41211 25 2.34375C25 2.27539 24.9512 2.19727 24.8926 2.16797L23.4375 1.5625L22.832 0.107422C22.8027 0.0488281 22.7246 0 22.6562 0C22.5879 0 22.5098 0.0488281 22.4805 0.107422L21.875 1.5625L20.4199 2.16797C20.3613 2.19727 20.3125 2.27539 20.3125 2.34375C20.3125 2.41211 20.3613 2.49023 20.4199 2.51953L21.875 3.125L22.4805 4.58008ZM22.832 9.48242C22.8027 9.42383 22.7246 9.375 22.6562 9.375C22.5879 9.375 22.5098 9.42383 22.4805 9.48242L21.875 10.9375L20.4199 11.543C20.3613 11.5723 20.3125 11.6504 20.3125 11.7188C20.3125 11.7871 20.3613 11.8652 20.4199 11.8945L21.875 12.5L22.4805 13.9551C22.5098 14.0137 22.5879 14.0625 22.6562 14.0625C22.7246 14.0625 22.8027 14.0137 22.832 13.9551L23.4375 12.5L24.8926 11.8945C24.9512 11.8652 25 11.7871 25 11.7188C25 11.6504 24.9512 11.5723 24.8926 11.543L23.4375 10.9375L22.832 9.48242ZM21.875 7.03125C21.875 6.96289 21.8262 6.88477 21.7676 6.85547L20.3125 6.25L19.707 4.79492C19.6777 4.73633 19.5996 4.6875 19.5312 4.6875C19.4629 4.6875 19.3848 4.73633 19.3555 4.79492L18.75 6.25L17.2949 6.85547C17.2363 6.88477 17.1875 6.96289 17.1875 7.03125C17.1875 7.09961 17.2363 7.17773 17.2949 7.20703L18.75 7.8125L19.3555 9.26758C19.3848 9.32617 19.4629 9.375 19.5312 9.375C19.5996 9.375 19.6777 9.32617 19.707 9.26758L20.3125 7.8125L21.7676 7.20703C21.8262 7.17773 21.875 7.09961 21.875 7.03125Z"/>
</g>
<defs>
<clipPath id="clip0_29_12">
<rect width="25" height="25"/>
</clipPath>
</defs>
</svg>
