<svg width="32" height="32" viewBox="0 0 32 32" fill="none" xmlns="http://www.w3.org/2000/svg">
<path d="M20.65 26.08L20.59 25.9L20.51 25.74L20.39 25.6C20.3042 25.5117 20.2016 25.4415 20.0883 25.3936C19.9749 25.3456 19.8531 25.3209 19.73 25.3209C19.6069 25.3209 19.4851 25.3456 19.3717 25.3936C19.2583 25.4415 19.1557 25.5117 19.07 25.6L18.95 25.74L18.87 25.9C18.8657 25.9599 18.8657 26.0201 18.87 26.08C18.8599 26.1429 18.8599 26.2071 18.87 26.27C18.8703 26.3901 18.894 26.509 18.94 26.62C18.9909 26.7321 19.0621 26.8338 19.15 26.92C19.2329 27.0117 19.3354 27.0835 19.45 27.13C19.5647 27.1753 19.6867 27.199 19.81 27.2H19.99L20.17 27.14L20.33 27.06C20.3827 27.0276 20.4299 26.9871 20.47 26.94C20.5617 26.8571 20.6335 26.7545 20.68 26.64C20.726 26.529 20.7497 26.4101 20.75 26.29C20.7234 26.217 20.6899 26.1467 20.65 26.08Z"/>
<path d="M13.18 26.08L13.12 25.9L13 25.74L12.88 25.6C12.7943 25.5117 12.6917 25.4415 12.5783 25.3936C12.4649 25.3456 12.3431 25.3209 12.22 25.3209C12.0969 25.3209 11.9751 25.3456 11.8617 25.3936C11.7483 25.4415 11.6458 25.5117 11.56 25.6L11.44 25.74L11.36 25.9C11.3557 25.9599 11.3557 26.0201 11.36 26.08C11.3499 26.1429 11.3499 26.2071 11.36 26.27C11.3603 26.3901 11.384 26.509 11.43 26.62C11.4809 26.7321 11.5521 26.8338 11.64 26.92C11.7229 27.0117 11.8254 27.0835 11.94 27.13C12.0547 27.1753 12.1767 27.199 12.3 27.2H12.48L12.66 27.14L12.82 27.06C12.8727 27.0276 12.9199 26.9871 12.96 26.94C13.0517 26.8571 13.1235 26.7545 13.17 26.64C13.216 26.529 13.2397 26.4101 13.24 26.29C13.2263 26.2183 13.2062 26.1481 13.18 26.08Z"/>
<path d="M9.45 22.34L9.39 22.16L9.31 22L9.19 21.86C9.10425 21.7717 9.00165 21.7015 8.88828 21.6536C8.77492 21.6056 8.65308 21.5809 8.53 21.5809C8.40691 21.5809 8.28508 21.6056 8.17171 21.6536C8.05834 21.7015 7.95575 21.7717 7.87 21.86L7.75 22L7.67 22.16C7.66574 22.2199 7.66574 22.2801 7.67 22.34C7.65991 22.4029 7.65991 22.4671 7.67 22.53C7.67026 22.6501 7.69404 22.769 7.74 22.88C7.79094 22.9921 7.86213 23.0938 7.95 23.18C8.03289 23.2717 8.13545 23.3435 8.25 23.39C8.36466 23.4353 8.48671 23.4591 8.61 23.46H8.79L8.97 23.4L9 23.3C9.05267 23.2676 9.09991 23.2271 9.14 23.18C9.23172 23.0971 9.30351 22.9945 9.35 22.88C9.39596 22.769 9.41974 22.6501 9.42 22.53C9.43494 22.4675 9.44497 22.404 9.45 22.34Z"/>
<path d="M16.92 22.34L16.86 22.16L16.78 22L16.66 21.86C16.5742 21.7717 16.4717 21.7015 16.3583 21.6536C16.2449 21.6056 16.1231 21.5809 16 21.5809C15.8769 21.5809 15.7551 21.6056 15.6417 21.6536C15.5283 21.7015 15.4257 21.7717 15.34 21.86L15.22 22L15.14 22.16C15.1357 22.2199 15.1357 22.2801 15.14 22.34C15.1299 22.4029 15.1299 22.4671 15.14 22.53C15.1403 22.6501 15.164 22.769 15.21 22.88C15.2609 22.9921 15.3321 23.0938 15.42 23.18C15.5029 23.2717 15.6054 23.3435 15.72 23.39C15.8347 23.4353 15.9567 23.4591 16.08 23.46H16.26L16.44 23.4L16.6 23.32C16.6527 23.2876 16.6999 23.2471 16.74 23.2C16.8317 23.1171 16.9035 23.0145 16.95 22.9C16.996 22.789 17.0197 22.6701 17.02 22.55C16.9934 22.477 16.9599 22.4067 16.92 22.34Z"/>
<path d="M19.72 17.25L19.66 17.07L19.58 16.91L19.46 16.77C19.3743 16.6817 19.2717 16.6115 19.1583 16.5636C19.0449 16.5157 18.9231 16.491 18.8 16.491C18.6769 16.491 18.5551 16.5157 18.4417 16.5636C18.3284 16.6115 18.2258 16.6817 18.14 16.77L18.02 16.91L17.94 17.07C17.9358 17.13 17.9358 17.1901 17.94 17.25C17.9299 17.313 17.9299 17.3771 17.94 17.44C17.9403 17.5601 17.9641 17.6791 18.01 17.79C18.061 17.9021 18.1321 18.0038 18.22 18.09C18.3029 18.1818 18.4055 18.2535 18.52 18.3C18.6347 18.3454 18.7567 18.3691 18.88 18.37H19.06L19.24 18.31L19.4 18.23C19.4527 18.1976 19.4999 18.1571 19.54 18.11C19.6317 18.0271 19.7035 17.9246 19.75 17.81C19.796 17.6991 19.8198 17.5801 19.82 17.46C19.7934 17.387 19.7599 17.3167 19.72 17.25Z"/>
<path d="M14.12 17.25L14.06 17.07L14 16.92L13.88 16.78C13.7943 16.6917 13.6917 16.6215 13.5783 16.5736C13.4649 16.5257 13.3431 16.501 13.22 16.501C13.0969 16.501 12.9751 16.5257 12.8617 16.5736C12.7483 16.6215 12.6458 16.6917 12.56 16.78L12.44 16.92L12.36 17.08C12.3557 17.14 12.3557 17.2001 12.36 17.26C12.3499 17.323 12.3499 17.3871 12.36 17.45C12.3603 17.5702 12.384 17.6891 12.43 17.8C12.4809 17.9121 12.5521 18.0138 12.64 18.1C12.7229 18.1918 12.8254 18.2635 12.94 18.31C13.0547 18.3554 13.1767 18.3791 13.3 18.38H13.48L13.66 18.32L13.82 18.24C13.8727 18.2076 13.9199 18.1671 13.96 18.12C14.0517 18.0371 14.1235 17.9346 14.17 17.82C14.216 17.7091 14.2397 17.5902 14.24 17.47C14.2076 17.3928 14.1674 17.3191 14.12 17.25Z"/>
<path d="M24.39 22.34L24.33 22.16L24.25 22L24.13 21.86C24.0442 21.7717 23.9417 21.7015 23.8283 21.6536C23.7149 21.6056 23.5931 21.5809 23.47 21.5809C23.3469 21.5809 23.2251 21.6056 23.1117 21.6536C22.9983 21.7015 22.8957 21.7717 22.81 21.86L22.69 22L22.61 22.16C22.6057 22.2199 22.6057 22.2801 22.61 22.34C22.5999 22.4029 22.5999 22.4671 22.61 22.53C22.6103 22.6501 22.634 22.769 22.68 22.88C22.7309 22.9921 22.8021 23.0938 22.89 23.18C22.9729 23.2717 23.0754 23.3435 23.19 23.39C23.3047 23.4353 23.4267 23.4591 23.55 23.46H23.73L23.91 23.4L24 23.3C24.0527 23.2676 24.0999 23.2271 24.14 23.18C24.2317 23.0971 24.3035 22.9945 24.35 22.88C24.396 22.769 24.4197 22.6501 24.42 22.53C24.415 22.466 24.4049 22.4024 24.39 22.34Z"/>
<path d="M7.6 17.86C7.84665 17.86 8.0832 17.762 8.25761 17.5876C8.43202 17.4132 8.53 17.1767 8.53 16.93V16C8.74528 16.2916 9.02535 16.5292 9.34813 16.694C9.67091 16.8589 10.0276 16.9465 10.39 16.95C10.8298 16.9307 11.2575 16.8004 11.6334 16.5714C12.0093 16.3423 12.3212 16.022 12.54 15.64C12.89 15.17 13 15.08 13.19 15.08C13.38 15.08 13.49 15.17 13.84 15.64C14.0622 16.0196 14.3767 16.3369 14.7543 16.5624C15.1319 16.788 15.5604 16.9144 16 16.93C16.4398 16.9107 16.8675 16.7804 17.2434 16.5514C17.6193 16.3223 17.9312 16.002 18.15 15.62C18.5 15.15 18.61 15.06 18.8 15.06C18.99 15.06 19.1 15.15 19.46 15.62C19.6788 16.002 19.9907 16.3223 20.3666 16.5514C20.7425 16.7804 21.1702 16.9107 21.61 16.93C21.9783 16.9215 22.3394 16.8266 22.6642 16.6529C22.989 16.4792 23.2685 16.2316 23.48 15.93V16.88C23.48 17.128 23.5785 17.3658 23.7539 17.5412C23.9292 17.7165 24.167 17.815 24.415 17.815C24.663 17.815 24.9008 17.7165 25.0761 17.5412C25.2515 17.3658 25.35 17.128 25.35 16.88V13.2C25.3464 12.6252 25.166 12.0654 24.8332 11.5967C24.5004 11.1279 24.0315 10.773 23.49 10.58V8.58001L23.88 8.19001C24.5786 7.489 24.9708 6.53968 24.9708 5.55001C24.9708 4.56034 24.5786 3.61102 23.88 2.91001L23.22 2.25001C23.1336 2.16293 23.0307 2.09382 22.9175 2.04666C22.8042 1.9995 22.6827 1.97522 22.56 1.97522C22.4373 1.97522 22.3158 1.9995 22.2025 2.04666C22.0893 2.09382 21.9864 2.16293 21.9 2.25001L21.24 2.91001C20.5414 3.61102 20.1491 4.56034 20.1491 5.55001C20.1491 6.53968 20.5414 7.489 21.24 8.19001L21.63 8.58001V10.4H16.94V8.60001L17.33 8.21001C18.0286 7.509 18.4208 6.55968 18.4208 5.57001C18.4208 4.58034 18.0286 3.63102 17.33 2.93001L16.67 2.27001C16.5836 2.18293 16.4807 2.11382 16.3675 2.06666C16.2542 2.0195 16.1327 1.99522 16.01 1.99522C15.8873 1.99522 15.7658 2.0195 15.6525 2.06666C15.5393 2.11382 15.4364 2.18293 15.35 2.27001L14.69 2.93001C14.3429 3.27646 14.0675 3.68797 13.8796 4.14097C13.6917 4.59398 13.595 5.07959 13.595 5.57001C13.595 6.06043 13.6917 6.54604 13.8796 6.99905C14.0675 7.45205 14.3429 7.86356 14.69 8.21001L15.08 8.60001V10.4H10.4V8.60001L10.79 8.21001C11.1371 7.86356 11.4125 7.45205 11.6004 6.99905C11.7883 6.54604 11.885 6.06043 11.885 5.57001C11.885 5.07959 11.7883 4.59398 11.6004 4.14097C11.4125 3.68797 11.1371 3.27646 10.79 2.93001L10.13 2.27001C10.0436 2.18293 9.94073 2.11382 9.82746 2.06666C9.71418 2.0195 9.5927 1.99522 9.47 1.99522C9.3473 1.99522 9.22581 2.0195 9.11254 2.06666C8.99926 2.11382 8.89644 2.18293 8.81 2.27001L8.15 2.93001C7.45141 3.63102 7.05915 4.58034 7.05915 5.57001C7.05915 6.55968 7.45141 7.509 8.15 8.21001L8.54 8.60001V10.6C7.99983 10.7902 7.53094 11.1414 7.19657 11.6063C6.8622 12.0712 6.67841 12.6274 6.67 13.2V16.93C6.67 17.1767 6.76798 17.4132 6.94239 17.5876C7.1168 17.762 7.35335 17.86 7.6 17.86ZM16 4.26001C16.3493 4.61052 16.5454 5.08518 16.5454 5.58001C16.5454 6.07484 16.3493 6.5495 16 6.90001C15.6507 6.5495 15.4546 6.07484 15.4546 5.58001C15.4546 5.08518 15.6507 4.61052 16 4.26001ZM22.54 4.26001C22.8893 4.61052 23.0854 5.08518 23.0854 5.58001C23.0854 6.07484 22.8893 6.5495 22.54 6.90001C22.1907 6.5495 21.9946 6.07484 21.9946 5.58001C21.9946 5.08518 22.1907 4.61052 22.54 4.26001ZM9.47 4.26001C9.81929 4.61052 10.0154 5.08518 10.0154 5.58001C10.0154 6.07484 9.81929 6.5495 9.47 6.90001C9.1207 6.5495 8.92457 6.07484 8.92457 5.58001C8.92457 5.08518 9.1207 4.61052 9.47 4.26001ZM9.47 12.26H22.53C22.7767 12.26 23.0132 12.358 23.1876 12.5324C23.362 12.7068 23.46 12.9434 23.46 13.19V13.4C22.9705 13.659 22.5543 14.0374 22.25 14.5C21.9 14.97 21.79 15.06 21.59 15.06C21.39 15.06 21.29 14.97 20.93 14.5C20.7112 14.1181 20.3993 13.7977 20.0234 13.5686C19.6475 13.3396 19.2198 13.2093 18.78 13.19C18.3402 13.2093 17.9125 13.3396 17.5366 13.5686C17.1607 13.7977 16.8488 14.1181 16.63 14.5C16.28 14.97 16.17 15.06 15.98 15.06C15.79 15.06 15.68 14.97 15.33 14.5C15.1112 14.1181 14.7993 13.7977 14.4234 13.5686C14.0475 13.3396 13.6198 13.2093 13.18 13.19C12.7351 13.2043 12.3012 13.3322 11.9196 13.5615C11.5381 13.7908 11.2215 14.1139 11 14.5C10.65 14.97 10.54 15.06 10.35 15.06C10.16 15.06 10.05 14.97 9.7 14.5C9.39567 14.0374 8.97948 13.659 8.49 13.4V13.2C8.48844 13.0727 8.51304 12.9465 8.56226 12.8291C8.61149 12.7117 8.68429 12.6056 8.77616 12.5175C8.86803 12.4294 8.97701 12.3611 9.09636 12.3168C9.21571 12.2725 9.34288 12.2532 9.47 12.26Z"/>
<path d="M29.07 28.1299H28.14V21.5999C28.14 20.8573 27.845 20.1451 27.3199 19.62C26.7948 19.0949 26.0826 18.7999 25.34 18.7999H6.67C5.92739 18.7999 5.2152 19.0949 4.6901 19.62C4.16499 20.1451 3.86999 20.8573 3.86999 21.5999V28.1299H2.93C2.68202 28.1299 2.4442 28.2284 2.26885 28.4038C2.0935 28.5791 1.995 28.817 1.995 29.0649C1.995 29.3129 2.0935 29.5507 2.26885 29.7261C2.4442 29.9014 2.68202 29.9999 2.93 29.9999H29.07C29.318 29.9999 29.5558 29.9014 29.7311 29.7261C29.9065 29.5507 30.005 29.3129 30.005 29.0649C30.005 28.817 29.9065 28.5791 29.7311 28.4038C29.5558 28.2284 29.318 28.1299 29.07 28.1299ZM6.67 20.6699H25.33C25.5766 20.6699 25.8132 20.7679 25.9876 20.9423C26.162 21.1167 26.26 21.3533 26.26 21.5999V22.6699C25.6433 22.8826 25.0921 23.2512 24.66 23.7399C24.2 24.1999 23.98 24.3999 23.45 24.3999C22.92 24.3999 22.7 24.1999 22.24 23.7399C21.9353 23.3639 21.5505 23.0607 21.1136 22.8525C20.6768 22.6442 20.1989 22.5361 19.715 22.5361C19.231 22.5361 18.7532 22.6442 18.3164 22.8525C17.8795 23.0607 17.4947 23.3639 17.19 23.7399C16.73 24.1999 16.51 24.3999 15.98 24.3999C15.45 24.3999 15.23 24.1999 14.77 23.7399C14.4653 23.3639 14.0805 23.0607 13.6436 22.8525C13.2068 22.6442 12.7289 22.5361 12.245 22.5361C11.761 22.5361 11.2832 22.6442 10.8464 22.8525C10.4095 23.0607 10.0247 23.3639 9.72 23.7399C9.26 24.1999 9.04 24.3999 8.52 24.3999C8 24.3999 7.76999 24.1999 7.30999 23.7399C6.88071 23.2526 6.33311 22.8841 5.71999 22.6699V21.5999C5.71997 21.4761 5.74467 21.3535 5.79265 21.2394C5.84063 21.1252 5.91093 21.0218 5.99942 20.9351C6.08791 20.8485 6.1928 20.7804 6.30795 20.7349C6.42311 20.6894 6.54619 20.6673 6.67 20.6699ZM5.73999 28.1299V24.7999L6.01 25.0599C6.31469 25.4359 6.69951 25.7391 7.13635 25.9474C7.5732 26.1557 8.05104 26.2637 8.53499 26.2637C9.01895 26.2637 9.49679 26.1557 9.93364 25.9474C10.3705 25.7391 10.7553 25.4359 11.06 25.0599C11.52 24.5999 11.74 24.3999 12.26 24.3999C12.78 24.3999 13.01 24.5999 13.47 25.0599C13.7747 25.4359 14.1595 25.7391 14.5964 25.9474C15.0332 26.1557 15.511 26.2637 15.995 26.2637C16.4789 26.2637 16.9568 26.1557 17.3936 25.9474C17.8305 25.7391 18.2153 25.4359 18.52 25.0599C18.98 24.5999 19.2 24.3999 19.73 24.3999C20.26 24.3999 20.48 24.5999 20.94 25.0599C21.2446 25.4377 21.63 25.7425 22.0678 25.9519C22.5056 26.1612 22.9847 26.2699 23.47 26.2699C23.9553 26.2699 24.4344 26.1612 24.8722 25.9519C25.31 25.7425 25.6954 25.4377 26 25.0599L26.28 24.7899V28.1299H5.73999Z"/>
</svg>
