<svg width="32" height="32" viewBox="0 0 32 32" fill="none" xmlns="http://www.w3.org/2000/svg">
<g clip-path="url(#clip0_518_322)">
<path d="M8.4 22L9.6 19.7C10.1 18.7 11.1 18 12.3 18H15.8C15.9 18 16 18 16 18C17.8 15.6 20.7 14 24 14C25.2 14 26.3 14.2 27.4 14.6C27 14 26.5 13.4 26 13H27C27.6 13 28 12.6 28 12C28 11.4 27.6 11 27 11H24.2L23 8C22.2 6.2 20.4 5 18.4 5H9.6C7.6 5 5.8 6.2 5 8L3.7 11H1C0.4 11 0 11.4 0 12C0 12.6 0.4 13 1 13H2C0.8 13.9 0 15.4 0 17V21C0 21.9 0.4 22.7 1 23.2V25C1 26.7 2.3 28 4 28H6C7.7 28 9 26.7 9 25V24H14C14 23.3 14.1 22.6 14.2 22H8.4ZM7 19H4C3.4 19 3 18.6 3 18C3 17.4 3.4 17 4 17H7C7.6 17 8 17.4 8 18C8 18.6 7.6 19 7 19ZM5.5 12L6.9 8.8C7.4 7.7 8.4 7 9.6 7H18.3C19.5 7 20.6 7.7 21.1 8.8L22.5 12H5.5Z"/>
<path d="M31.7 21.9C31.6 21.4 31 21.1 30.5 21.2C29.8 21.4 29.3 21.2 29.2 21C29.1 20.8 29.2 20.3 29.7 19.7C30.1 19.3 30.1 18.7 29.7 18.3C28.7 17.3 27.5 16.6 26.1 16.2C25.6 16.1 25 16.4 24.9 16.9C24.7 17.6 24.3 17.9 24 17.9C23.7 17.9 23.4 17.5 23.1 16.9C22.9 16.4 22.4 16.1 21.9 16.2C20.5 16.6 19.3 17.3 18.3 18.3C17.9 18.7 17.9 19.3 18.3 19.7C18.8 20.2 18.9 20.7 18.8 21C18.7 21.2 18.2 21.4 17.5 21.2C17 21.1 16.4 21.4 16.3 21.9C16.1 22.6 16 23.3 16 24C16 24.7 16.1 25.4 16.3 26.1C16.4 26.6 17 26.9 17.5 26.8C18.2 26.6 18.7 26.8 18.8 27C18.9 27.2 18.8 27.7 18.3 28.3C17.9 28.7 17.9 29.3 18.3 29.7C19.3 30.7 20.5 31.4 21.9 31.8C22.4 31.9 23 31.6 23.1 31.1C23.3 30.4 23.7 30.1 24 30.1C24.3 30.1 24.6 30.5 24.9 31.1C25 31.5 25.4 31.8 25.9 31.8C26 31.8 26.1 31.8 26.2 31.8C27.6 31.4 28.8 30.7 29.8 29.7C30.2 29.3 30.2 28.7 29.8 28.3C29.3 27.8 29.2 27.3 29.3 27C29.4 26.8 29.9 26.6 30.6 26.8C31.1 26.9 31.7 26.6 31.8 26.1C32 25.4 32.1 24.7 32.1 24C32.1 23.3 31.9 22.6 31.7 21.9ZM24 27C22.3 27 21 25.7 21 24C21 22.3 22.3 21 24 21C25.7 21 27 22.3 27 24C27 25.7 25.7 27 24 27Z"/>
<g clip-path="url(#clip1_518_322)">
<path d="M31.5456 15.355C31.5456 15.3242 31.5579 15.2946 31.5797 15.2728C31.6016 15.251 31.6313 15.2388 31.6622 15.2388C31.6932 15.2388 31.7229 15.251 31.7447 15.2728C31.7666 15.2946 31.7789 15.3242 31.7789 15.355C31.7789 15.3859 31.7666 15.4154 31.7447 15.4372C31.7229 15.459 31.6932 15.4713 31.6622 15.4713C31.6313 15.4713 31.6016 15.459 31.5797 15.4372C31.5579 15.4154 31.5456 15.3859 31.5456 15.355ZM31.0638 15.7202C31.0762 15.6907 31.1103 15.6766 31.1402 15.689L31.1875 15.7086L31.2432 15.6163C31.2828 15.5502 31.3543 15.51 31.4313 15.51C31.5563 15.51 31.6671 15.5897 31.7067 15.7079L31.7908 15.959L31.9836 16.0392L32.0667 15.9288C32.0822 15.9082 32.107 15.8966 32.1328 15.8978C32.1586 15.899 32.1821 15.9133 32.1955 15.9353L32.4288 16.3228C32.4432 16.3468 32.4437 16.3766 32.4298 16.4008C32.4159 16.425 32.3902 16.44 32.3622 16.44H31.74C31.713 16.44 31.688 16.4262 31.6739 16.4032C31.6598 16.3802 31.6583 16.3519 31.6705 16.3279L31.7094 16.2504C31.7225 16.2242 31.7495 16.2075 31.7789 16.2075H31.8567L31.9114 16.1349L31.0954 15.7963C31.0658 15.7839 31.0517 15.75 31.0641 15.7202H31.0638ZM31.2651 15.9426L31.5373 16.0588C31.566 16.0709 31.5845 16.099 31.5845 16.13V16.3625C31.5845 16.4054 31.5497 16.44 31.5067 16.44C31.4637 16.44 31.4289 16.4054 31.4289 16.3625V16.1811L31.2816 16.1182L31.1917 16.387C31.1781 16.4277 31.1341 16.4495 31.0932 16.4359C31.0524 16.4223 31.0305 16.3785 31.0439 16.3381L31.1606 15.9893L31.1873 15.9094L31.2651 15.9426Z" fill="#8AB2FD"/>
</g>
</g>
<defs>
<clipPath id="clip0_518_322">
<rect width="32" height="32" fill="white"/>
</clipPath>
<clipPath id="clip1_518_322">
<rect width="1.4" height="1.24" fill="white" transform="translate(31.04 15.2)"/>
</clipPath>
</defs>
</svg>
