<svg width="29" height="29" viewBox="0 0 29 29" fill="none" xmlns="http://www.w3.org/2000/svg">
<path d="M3.625 10.875H25.375M20.5417 15.71L8.45833 15.7083M12.4861 20.5423L8.45833 20.5417M8.45833 3.625V6.04167M20.5417 3.625V6.04167M7.49167 25.375H21.5083C22.8618 25.375 23.5386 25.375 24.0555 25.1116C24.5102 24.8799 24.8799 24.5102 25.1116 24.0555C25.375 23.5386 25.375 22.8618 25.375 21.5083V9.90833C25.375 8.55487 25.375 7.87814 25.1116 7.36119C24.8799 6.90646 24.5102 6.53676 24.0555 6.30507C23.5386 6.04167 22.8618 6.04167 21.5083 6.04167H7.49167C6.13821 6.04167 5.46147 6.04167 4.94452 6.30507C4.48979 6.53676 4.12009 6.90646 3.8884 7.36119C3.625 7.87814 3.625 8.55487 3.625 9.90833V21.5083C3.625 22.8618 3.625 23.5386 3.8884 24.0555C4.12009 24.5102 4.48979 24.8799 4.94452 25.1116C5.46147 25.375 6.1382 25.375 7.49167 25.375Z"  stroke-width="2.41667" stroke-linecap="round" stroke-linejoin="round"/>
</svg>
