<svg width="35" height="31" viewBox="0 0 35 31" fill="none" xmlns="http://www.w3.org/2000/svg">
<g clip-path="url(#clip0_31_92)">
<path d="M12.6389 3.875C12.6389 3.10421 12.9462 2.365 13.4932 1.81997C14.0401 1.27494 14.782 0.96875 15.5556 0.96875C16.3291 0.96875 17.071 1.27494 17.618 1.81997C18.1649 2.365 18.4722 3.10421 18.4722 3.875C18.4722 4.64579 18.1649 5.385 17.618 5.93003C17.071 6.47506 16.3291 6.78125 15.5556 6.78125C14.782 6.78125 14.0401 6.47506 13.4932 5.93003C12.9462 5.385 12.6389 4.64579 12.6389 3.875ZM0.595492 13.0055C0.905388 12.2668 1.75608 11.9156 2.50348 12.2244L3.68837 12.7148L5.07987 10.408C6.07032 8.75508 7.85678 7.75 9.78299 7.75C12.9063 7.75 15.6771 9.74199 16.6675 12.6967L18.77 18.9754L23.5885 20.9795L25.6667 18.2186C26.0556 17.7039 26.6754 17.4133 27.3195 17.4436C27.9635 17.4738 28.553 17.8311 28.8872 18.382L34.7205 28.0695C35.079 28.6689 35.0912 29.4137 34.7448 30.0191C34.3984 30.6246 33.7543 31 33.0556 31H17.5C16.8255 31 16.1997 30.6549 15.8472 30.0797C15.4948 29.5045 15.4583 28.7961 15.7622 28.1967L16.7344 26.2592C17.0625 25.6053 17.737 25.1875 18.4722 25.1875H20.4167L21.7839 23.3711L1.38542 14.9066C0.644103 14.5979 0.291673 13.7502 0.601568 13.0055H0.595492ZM5.62674 18.5637L12.4323 21.4699C13.1493 21.7727 13.6111 22.475 13.6111 23.25V29.0625C13.6111 30.1342 12.7422 31 11.6667 31C10.5912 31 9.72223 30.1342 9.72223 29.0625V24.5275L6.03994 22.9533L3.79167 29.674C3.45139 30.6912 2.35157 31.2361 1.33074 30.8971C0.309902 30.558 -0.236973 29.4621 0.0972282 28.451L3.01389 19.7322L3.6823 17.7342L5.62674 18.5637Z"/>
</g>
<defs>
<clipPath id="clip0_31_92">
<rect width="35" height="31" />
</clipPath>
</defs>
</svg>
