<svg width="25" height="25" viewBox="0 0 25 25" fill="none" xmlns="http://www.w3.org/2000/svg">
<path d="M23.4979 8.13477C23.6542 8.55957 23.5224 9.0332 23.1854 9.33594L21.0712 11.2598C21.1249 11.665 21.1542 12.0801 21.1542 12.5C21.1542 12.9199 21.1249 13.335 21.0712 13.7402L23.1854 15.6641C23.5224 15.9668 23.6542 16.4404 23.4979 16.8652C23.2831 17.4463 23.0243 18.0029 22.7265 18.54L22.497 18.9355C22.1747 19.4727 21.8134 19.9805 21.4179 20.459C21.1298 20.8105 20.6513 20.9277 20.2216 20.791L17.5018 19.9268C16.8475 20.4297 16.1249 20.8496 15.3534 21.167L14.7431 23.9551C14.6454 24.3994 14.3036 24.751 13.8544 24.8242C13.1806 24.9365 12.4872 24.9951 11.7792 24.9951C11.0712 24.9951 10.3778 24.9365 9.70399 24.8242C9.25477 24.751 8.91298 24.3994 8.81532 23.9551L8.20497 21.167C7.43348 20.8496 6.71083 20.4297 6.05653 19.9268L3.34169 20.7959C2.912 20.9326 2.43348 20.8105 2.1454 20.4639C1.74989 19.9854 1.38856 19.4775 1.0663 18.9404L0.836804 18.5449C0.538953 18.0078 0.280164 17.4512 0.0653202 16.8701C-0.0909298 16.4453 0.0409061 15.9717 0.37782 15.6689L2.49208 13.7451C2.43837 13.335 2.40907 12.9199 2.40907 12.5C2.40907 12.0801 2.43837 11.665 2.49208 11.2598L0.37782 9.33594C0.0409061 9.0332 -0.0909298 8.55957 0.0653202 8.13477C0.280164 7.55371 0.538953 6.99707 0.836804 6.45996L1.0663 6.06445C1.38856 5.52734 1.74989 5.01953 2.1454 4.54102C2.43348 4.18945 2.912 4.07227 3.34169 4.20898L6.06141 5.07324C6.71571 4.57031 7.43837 4.15039 8.20985 3.83301L8.8202 1.04492C8.91786 0.600586 9.25965 0.249023 9.70887 0.175781C10.3827 0.0585937 11.0761 0 11.7841 0C12.4921 0 13.1854 0.0585938 13.8593 0.170898C14.3085 0.244141 14.6503 0.595703 14.7479 1.04004L15.3583 3.82812C16.1298 4.14551 16.8524 4.56543 17.5067 5.06836L20.2265 4.2041C20.6561 4.06738 21.1347 4.18945 21.4227 4.53613C21.8182 5.01465 22.1796 5.52246 22.5018 6.05957L22.7313 6.45508C23.0292 6.99219 23.288 7.54883 23.5028 8.12988L23.4979 8.13477ZM11.7841 16.4062C12.8201 16.4062 13.8136 15.9947 14.5462 15.2621C15.2788 14.5296 15.6903 13.536 15.6903 12.5C15.6903 11.464 15.2788 10.4704 14.5462 9.73786C13.8136 9.0053 12.8201 8.59375 11.7841 8.59375C10.7481 8.59375 9.7545 9.0053 9.02193 9.73786C8.28937 10.4704 7.87782 11.464 7.87782 12.5C7.87782 13.536 8.28937 14.5296 9.02193 15.2621C9.7545 15.9947 10.7481 16.4062 11.7841 16.4062Z" fill="white"/>
</svg>
