<svg width="32" height="32" viewBox="0 0 32 32" fill="none" xmlns="http://www.w3.org/2000/svg">
<path d="M14.2688 29.3188L2.975 18.775C2.7125 18.5313 2.4625 18.2688 2.23125 18H7.66875C9.08125 18 10.3562 17.15 10.9 15.8438L11.5562 14.2688L14.6375 21.1125C14.875 21.6438 15.3938 21.9875 15.975 21.9938C16.5562 22 17.0875 21.6813 17.35 21.1625L20 15.8563L20.1063 16.0688C20.7 17.2563 21.9125 18.0063 23.2375 18.0063H29.7687C29.5375 18.275 29.2875 18.5375 29.025 18.7813L17.7313 29.3188C17.2625 29.7563 16.6437 30 16 30C15.3562 30 14.7375 29.7563 14.2688 29.3188ZM31.4813 15H23.2313C23.0438 15 22.8687 14.8938 22.7812 14.725L21.3312 11.8313C21.075 11.325 20.5562 11 19.9875 11C19.4187 11 18.9 11.3188 18.6437 11.8313L16.0562 17.0063L12.8687 9.88753C12.625 9.34378 12.075 8.99378 11.4812 9.00628C10.8875 9.01878 10.35 9.37503 10.1187 9.93128L8.13125 14.7C8.05625 14.8875 7.86875 15.0063 7.66875 15.0063H1C0.8375 15.0063 0.6875 15.0313 0.54375 15.075C0.1875 14.075 0 13.0125 0 11.9313V11.5688C0 7.20003 3.15625 3.47503 7.4625 2.75628C10.3125 2.28128 13.2125 3.21253 15.25 5.25003L16 6.00003L16.75 5.25003C18.7875 3.21253 21.6875 2.28128 24.5375 2.75628C28.8438 3.47503 32 7.20003 32 11.5688V11.9313C32 12.9875 31.825 14.025 31.4813 15Z"/>
</svg>
